Patient4_TMGait_0pt7_02_right_46_EMG.mot
version=1
nRows=26
nColumns=33
inDegrees=no
endheader
time	1LAddLong	2LGlutMax	3LGlutMed	4LIliopsoas	5LSemiMemb	6LBicFemLong	7LRecFem	8LVastMed	9LVastLat	10LGasMed	11LTibAnt	12lTibPost	13LPeroneusLong	14LSol	15LExtDigLong	16LFlexDigLong	17RAddLong	18RGlutMax	19RGlutMed	20RIliopsoas	21RSemiMemb	22RBicFemLong	23RRecFem	24RVastMed	25RVastLat	26RGasMed	27RTibAnt	28RTibPost	29RPeroneusLong	30RSol	31RExtDigLong	32RFlexDigLong
52.88	0.021362	0.33691	-0.060883	-0.006409	0.077209	-0.24109	0.23666	-0.009918	-0.20798	-0.080109	0.006714	-0.002899	-0.06134	-0.071106	0.005798	-0.40329	0.033875	0.29541	0.13825	0.15488	-0.0354	0.18463	-0.31754	-0.062714	-0.033875	-0.006409	0.001678	-0.15106	0.37247	0.15793	-0.004578	-0.007324
52.881	0.022736	0.31952	-0.033264	0.003967	0.074463	-0.079803	0.22278	-0.031128	-0.2594	-0.052795	0.010986	-0.001068	-0.080414	-0.043335	0.01297	0.55618	0.039978	0.30136	0.13321	0.071411	0.12741	0.074921	-0.36118	-0.19531	-0.053101	-0.007324	0.026245	-0.17197	0.10895	-0.06485	0.001678	-0.019226
52.882	0.003662	0.23575	0.056	0.030365	0.005646	0.14832	0.17716	-0.024567	-0.11093	-0.032806	0.012207	-0.001526	-0.06897	0.07309	0.008392	0.42511	0.035858	0.33264	-0.12436	0.028381	0.2565	0.024719	-0.39429	-0.10269	-0.053558	-0.0177	0.045319	0.23086	0.003357	-0.040131	0.001373	-0.020142
52.883	-0.008698	0.15381	0.14526	0.014496	-0.002441	0.30579	0.15533	-0.022888	-0.097504	-0.025482	0.011292	-0.003204	-0.069885	0.04425	0.005341	-0.15274	0.034485	0.27863	-0.32105	-0.028992	0.27527	0.012512	-0.4538	-0.078735	-0.023041	-0.028229	0.061493	0.10346	-0.12344	0.26535	0.000153	-0.011292
52.884	-0.016174	0.085907	0.14648	0.003052	-0.095978	0.19241	0.006256	-0.007782	-0.18295	-0.058899	0.006561	-0.001373	-0.053253	-0.090485	0.00061	-0.19745	0.021515	0.23361	-0.18478	-0.1004	0.21378	-0.014343	-0.36774	0.005646	0.000305	-0.029297	0.038605	0.008087	-0.044861	0.11002	-0.000458	-0.007782
52.885	-0.001984	0.077362	-0.004883	-0.00473	-0.18066	-0.29984	-0.15533	0.002136	-0.18188	-0.1358	0.009155	-0.006866	-0.03067	-0.17609	0.015564	0.42053	0.022736	0.19806	-0.1004	-0.02594	0.19257	-0.006561	-0.31525	0.018158	-0.016785	-0.038757	0.039215	-0.006409	0.15335	-0.036621	-0.000305	-0.013733
52.886	0.027771	0.033264	-0.081482	-0.000305	-0.094299	-0.77835	-0.20264	-0.007019	-0.088196	-0.084534	0.012207	-0.011902	-0.063629	-0.20798	0.018616	0.050812	0.010376	0.2002	-0.19104	-0.023956	0.19562	0.037842	-0.35721	0.013123	-0.031891	-0.031891	0.037842	-0.004883	0.097351	-0.085144	0.001221	-0.008698
52.887	0.052185	0.006561	-0.065002	-0.004425	0.10819	-0.87769	-0.04837	-0.040894	-0.090332	-0.06897	0.011139	-0.020905	-0.050201	-0.20477	0.013275	-0.38605	-0.009918	0.22919	-0.55023	0.050659	0.18799	0.068359	-0.36987	-0.011749	-0.019836	-0.036926	-0.033417	-0.004272	-0.008545	0.044708	0.000763	-0.012817
52.888	0.050201	-0.046082	-0.067596	0.007782	0.21179	-0.47241	0.11566	-0.063629	-0.087585	-0.061646	0.009155	-0.007324	-0.082245	-0.18677	0.003052	0.067749	-0.006561	0.29923	-0.51697	0.19562	0.20508	0.064697	-0.37872	-0.01297	-0.010834	-0.021057	-0.042725	-0.002594	-0.058289	0.11322	0.000153	-0.00885
52.889	0.034485	-0.010834	-0.13779	0.011292	0.24826	-0.058746	0.092163	-0.063934	-0.079041	-0.039063	0.00885	-0.002899	-0.045166	-0.12878	-0.006714	0.076141	0.007629	0.24689	0.23804	0.17487	0.18784	0.031433	-0.34363	-0.044861	-0.018005	-0.023346	0.00824	-0.00885	-0.11612	0.098419	0.000305	-0.011444
52.89	0.022888	-0.009003	-0.12482	-0.004883	0.18372	0.20996	0.037842	-0.044403	-0.095367	-0.039978	0.014496	-0.008392	-0.052338	-0.10788	-0.006561	0.013275	0.004425	0.23605	0.21088	-0.036621	0.21347	0.007477	-0.41687	-0.092773	-0.022888	-0.009155	0.16068	-0.010223	-0.023193	-0.017548	-0.004425	-0.009613
52.891	0.006409	0.06485	-0.095978	-0.005188	0.092163	0.15228	-0.066681	-0.019836	-0.050049	-0.055695	0.013428	-0.014496	-0.038757	-0.031433	0.004883	0.005646	0.011597	0.2005	0.32593	-0.059052	0.21515	-0.045776	-0.41794	-0.033722	-0.009613	-0.001678	0.33737	-0.010071	0.063934	0.18265	0	-0.011902
52.892	-0.011749	-0.024719	-0.16174	-0.002899	0.087738	0.19669	-0.15778	0.00885	0.12695	-0.079346	0.01236	-0.00351	-0.036011	0.047455	-0.001373	0.006256	-0.016479	0.233	-0.068817	0.055084	0.19073	-0.052795	-0.40482	-0.001831	-0.043793	-0.003967	0.34897	-0.011292	0.04425	0.26367	0.00061	-0.010071
52.893	-0.028839	-0.081329	-0.23407	0.002136	0.11353	0.2327	0.004272	0.04364	0.14816	-0.081482	0.005646	0.006714	-0.037994	-0.022125	-0.003204	0.012512	-0.037231	0.20096	-0.037079	-0.016327	0.17716	-0.062714	-0.40359	0.007324	-0.040131	-0.000458	0.26642	-0.011749	0.089264	0.027924	-0.000916	-0.019836
52.894	-0.064392	-0.030365	-0.21576	0.01236	0.005035	0.31097	-0.056915	0.06012	-0.040741	-0.073242	0.009003	-0.000458	-0.02182	-0.061188	-0.000153	-0.001068	-0.044861	0.22446	-0.47775	-0.037079	0.1532	-0.032654	-0.39063	0.005646	-0.035248	0.001373	-0.19134	-0.009613	0.033264	-0.24597	0	-0.013885
52.895	-0.075073	-0.078888	-0.21973	0.022125	-0.13886	0.23758	-0.18021	0.044708	-0.069427	-0.096436	0.013275	-0.006561	-0.032959	-0.093994	-0.003662	-0.001373	-0.034637	0.21744	-0.4007	-0.082245	0.13855	-0.015564	-0.28824	0.016632	-0.053711	0.009155	-0.37643	-0.012207	-0.12741	-0.36209	0	-0.012817
52.896	-0.04837	-0.068359	-0.13107	0.025482	-0.28839	0.13763	-0.2803	0.016632	0.090027	-0.061493	0.003357	-0.010223	-0.034637	-0.10773	-0.007324	-0.007782	-0.032196	0.13504	0.20081	-0.1091	0.13779	0.002899	-0.3215	-0.00473	-0.024719	0.004272	-0.25192	-0.005951	-0.068359	-0.29068	0.000916	-0.009613
52.897	-0.017853	-0.084229	-0.17425	0.024719	-0.21988	-0.052032	-0.23422	-0.02243	0.2536	-0.050507	0.007935	0	-0.024261	-0.12695	-0.003815	-0.001068	-0.024414	0.050354	0.51788	-0.10803	0.15411	0.041656	-0.58746	-0.047607	0.017242	0.011139	-0.27252	-0.006561	-0.076447	-0.24185	0.010986	-0.012512
52.898	0.005188	-0.098267	-0.18768	-0.001831	-0.010376	-0.17716	-0.029907	-0.059357	0.31616	-0.055389	0.018005	-0.002594	-0.001831	-0.08667	-0.007019	0.001984	-0.001526	0.057068	-0.29785	-0.072021	0.15137	0.098267	-0.54688	0.02243	0.046539	0.007019	-0.43442	-0.006866	0.009308	-0.26871	0.000305	-0.01297
52.899	0.004578	-0.029755	-0.12024	0.025787	0.2449	-0.15595	0.068359	-0.078278	0.37903	-0.045929	0.016327	0.004425	0.016327	-0.079193	-0.007782	-0.006104	0.026398	0.040588	-0.48675	-0.052185	0.17258	0.095062	-0.44495	0.019836	-0.004425	0.009308	-0.63019	-0.006561	0.029144	-0.28809	0.001526	-0.009003
52.9	-0.021362	0.030823	-0.091248	0.019989	0.24735	-0.061798	0.17197	-0.055084	0.40527	-0.040436	0.007477	-0.002594	-0.00351	-0.076294	-0.013123	-0.019684	0.045471	0.069275	-0.047455	-0.056763	0.17502	0.064087	-0.38544	-0.023956	-0.033112	0.011139	-0.35141	-0.003052	0.084534	-0.17593	0.002899	-0.002136
52.901	-0.02594	0.14725	-0.13992	0.00061	0.098267	0.035706	0.19577	-0.05127	0.36972	-0.027771	0.005646	0.01297	-0.030823	-0.063782	-0.010834	-0.006256	0.05127	0.098419	-0.039978	0.13275	0.16968	0.060272	-0.36057	-0.002289	-0.024109	0.008087	0.009308	-0.009918	0.11429	-0.075684	-0.004578	-0.002289
52.902	-0.028839	0.2417	-0.090179	0.014801	-0.058594	0.16998	0.11414	-0.057373	0.29724	-0.006714	0.006256	-0.005798	-0.03067	-0.062714	-0.005341	-0.012054	0.046234	0.097809	-0.36346	0.32989	0.1712	0.054169	-0.41031	-0.058441	-0.008698	-0.002899	0.062561	-0.005035	0.12009	0.030212	0.000916	-0.014496
52.903	-0.010681	0.2002	0.006714	0.033112	-0.091248	0.31418	0.014801	-0.045013	0.18021	0.000916	0.002136	0.009766	-0.050812	-0.035553	-0.002289	-0.001373	0.038605	-0.03067	-0.44281	0.29465	0.15152	0.018768	-0.50125	-0.072479	-0.002289	-0.003052	-0.031128	-0.010071	0.14816	0.048981	0.000153	-0.014648
52.904	-0.009308	0.21774	0.12772	0.024719	-0.14679	0.3157	-0.103	0.000153	0.062408	0.016479	0.002747	0.010071	-0.029144	-0.03006	-0.003052	-0.005341	0.020905	0.033875	-0.001068	0.13153	0.16266	0.023804	-0.56671	-0.059814	0.008545	-0.00473	-0.046082	-0.011597	0.018463	0.077667	-0.001831	-0.011292
52.905	-0.011292	0.30426	0.078278	0.029907	-0.062561	0.37827	-0.2272	0.022736	0.011749	0.026245	0.005798	-0.003052	-0.016632	-0.020752	-0.001526	0.003662	0.014801	0.029297	0.001526	0.03418	0.14923	0.018616	-0.6572	-0.14435	0.010986	-0.010223	-0.11108	-0.010071	0.027771	0.15259	-0.001373	-0.006256
